<svg width="317" height="46" viewBox="0 0 317 46" fill="none" xmlns="http://www.w3.org/2000/svg">
<path d="M66.2719 13.69C66.4119 13.69 66.7319 13.69 67.2319 13.69C67.7319 13.67 68.2919 13.66 68.9119 13.66C69.5319 13.66 70.1519 13.66 70.7719 13.66C71.3919 13.64 71.9019 13.63 72.3019 13.63C74.6219 13.63 76.3819 14.09 77.5819 15.01C78.8019 15.93 79.4119 17.23 79.4119 18.91C79.4119 19.89 79.1419 20.77 78.6019 21.55C78.0619 22.33 77.3119 22.96 76.3519 23.44C77.5519 23.9 78.4619 24.55 79.0819 25.39C79.7219 26.23 80.0419 27.2 80.0419 28.3C80.0419 30.02 79.3919 31.41 78.0919 32.47C76.7919 33.51 74.8219 34.03 72.1819 34.03C71.6419 34.03 71.0619 34.03 70.4419 34.03C69.8219 34.03 69.2319 34.02 68.6719 34C68.1119 34 67.6119 34 67.1719 34C66.7519 34 66.4519 34 66.2719 34V13.69ZM69.8419 31.45H72.4219C73.7819 31.45 74.7519 31.15 75.3319 30.55C75.9319 29.93 76.2319 29.16 76.2319 28.24C76.2319 27.82 76.1619 27.41 76.0219 27.01C75.9019 26.61 75.6819 26.25 75.3619 25.93C75.0419 25.61 74.6119 25.36 74.0719 25.18C73.5519 24.98 72.8919 24.88 72.0919 24.88C71.6119 24.88 71.1819 24.88 70.8019 24.88C70.4419 24.88 70.1219 24.89 69.8419 24.91V31.45ZM69.8419 22.33H72.1519C73.4119 22.33 74.3119 22.04 74.8519 21.46C75.3919 20.88 75.6619 20.17 75.6619 19.33C75.6619 18.95 75.6019 18.57 75.4819 18.19C75.3619 17.81 75.1519 17.47 74.8519 17.17C74.5719 16.87 74.1819 16.63 73.6819 16.45C73.2019 16.27 72.5919 16.18 71.8519 16.18C71.4119 16.18 71.0219 16.18 70.6819 16.18C70.3619 16.18 70.0819 16.19 69.8419 16.21V22.33ZM82.1848 26.89C82.1848 25.55 82.3648 24.37 82.7248 23.35C83.1048 22.33 83.6148 21.48 84.2548 20.8C84.9148 20.1 85.6848 19.58 86.5648 19.24C87.4448 18.88 88.3948 18.7 89.4148 18.7C90.3148 18.7 91.0748 18.81 91.6948 19.03C92.3348 19.25 92.8548 19.55 93.2548 19.93C93.6548 20.31 93.9448 20.76 94.1248 21.28C94.3248 21.8 94.4248 22.36 94.4248 22.96C94.4248 23.68 94.2248 24.37 93.8248 25.03C93.4248 25.67 92.8448 26.24 92.0848 26.74C91.3448 27.22 90.4448 27.61 89.3848 27.91C88.3248 28.19 87.1348 28.34 85.8148 28.36C85.8748 28.82 85.9648 29.26 86.0848 29.68C86.2248 30.08 86.4148 30.44 86.6548 30.76C86.9148 31.06 87.2448 31.3 87.6448 31.48C88.0448 31.66 88.5448 31.75 89.1448 31.75C89.5848 31.75 90.0548 31.7 90.5548 31.6C91.0548 31.5 91.5148 31.38 91.9348 31.24C92.4348 31.08 92.9248 30.9 93.4048 30.7L94.3048 32.83C93.7848 33.09 93.2248 33.32 92.6248 33.52C92.1048 33.7 91.5048 33.86 90.8248 34C90.1448 34.14 89.4248 34.21 88.6648 34.21C87.5048 34.21 86.5148 34.04 85.6948 33.7C84.8748 33.34 84.2048 32.84 83.6848 32.2C83.1648 31.56 82.7848 30.79 82.5448 29.89C82.3048 28.99 82.1848 27.99 82.1848 26.89ZM89.1448 21.04C88.4848 21.04 87.9348 21.2 87.4948 21.52C87.0748 21.82 86.7348 22.22 86.4748 22.72C86.2148 23.2 86.0248 23.75 85.9048 24.37C85.8048 24.97 85.7448 25.58 85.7248 26.2C86.6848 26.16 87.4948 26.04 88.1548 25.84C88.8348 25.62 89.3848 25.36 89.8048 25.06C90.2248 24.74 90.5248 24.4 90.7048 24.04C90.9048 23.68 91.0048 23.32 91.0048 22.96C91.0048 22.38 90.8348 21.92 90.4948 21.58C90.1548 21.22 89.7048 21.04 89.1448 21.04ZM109.324 26.77C109.324 27.97 109.394 28.98 109.534 29.8C109.694 30.6 109.864 31.25 110.044 31.75C110.264 32.35 110.504 32.82 110.764 33.16L108.094 34.24C107.834 33.98 107.594 33.67 107.374 33.31C107.194 32.99 107.024 32.61 106.864 32.17C106.704 31.71 106.604 31.17 106.564 30.55C106.224 31.75 105.674 32.66 104.914 33.28C104.174 33.88 103.164 34.18 101.884 34.18C100.944 34.18 100.124 34.01 99.4245 33.67C98.7445 33.31 98.1745 32.81 97.7145 32.17C97.2545 31.51 96.9145 30.72 96.6945 29.8C96.4745 28.88 96.3645 27.86 96.3645 26.74C96.3645 25.6 96.5345 24.55 96.8745 23.59C97.2345 22.61 97.7245 21.77 98.3445 21.07C98.9845 20.37 99.7445 19.82 100.624 19.42C101.504 19.02 102.474 18.82 103.534 18.82C104.134 18.82 104.754 18.87 105.394 18.97C106.054 19.05 106.664 19.14 107.224 19.24C107.784 19.34 108.254 19.44 108.634 19.54C109.034 19.62 109.264 19.67 109.324 19.69V26.77ZM102.454 31.78C102.954 31.78 103.414 31.61 103.834 31.27C104.254 30.93 104.614 30.49 104.914 29.95C105.234 29.39 105.474 28.76 105.634 28.06C105.814 27.34 105.904 26.61 105.904 25.87V21.55C105.704 21.49 105.404 21.42 105.004 21.34C104.604 21.26 104.244 21.22 103.924 21.22C103.164 21.22 102.534 21.35 102.034 21.61C101.554 21.87 101.164 22.23 100.864 22.69C100.564 23.15 100.354 23.7 100.234 24.34C100.114 24.98 100.054 25.68 100.054 26.44C100.054 27.14 100.074 27.81 100.114 28.45C100.154 29.09 100.254 29.66 100.414 30.16C100.594 30.66 100.844 31.06 101.164 31.36C101.484 31.64 101.914 31.78 102.454 31.78ZM124.178 34.24C124.138 34.22 124.048 34.13 123.908 33.97C123.768 33.79 123.608 33.55 123.428 33.25C123.268 32.95 123.108 32.58 122.948 32.14C122.788 31.68 122.688 31.15 122.648 30.55C122.308 31.75 121.758 32.66 120.998 33.28C120.258 33.88 119.248 34.18 117.968 34.18C117.028 34.18 116.208 34.01 115.508 33.67C114.828 33.31 114.258 32.81 113.798 32.17C113.338 31.51 112.998 30.72 112.778 29.8C112.558 28.88 112.448 27.86 112.448 26.74C112.448 25.6 112.618 24.55 112.958 23.59C113.318 22.61 113.808 21.77 114.428 21.07C115.068 20.37 115.828 19.82 116.708 19.42C117.588 19.02 118.558 18.82 119.618 18.82C119.978 18.82 120.358 18.84 120.758 18.88C121.178 18.92 121.588 18.97 121.988 19.03V12.25L125.408 12.85V26.77C125.408 27.97 125.478 28.97 125.618 29.77C125.758 30.55 125.918 31.19 126.098 31.69C126.278 32.17 126.438 32.52 126.578 32.74C126.738 32.96 126.828 33.1 126.848 33.16L124.178 34.24ZM118.538 31.75C119.038 31.75 119.498 31.58 119.918 31.24C120.338 30.9 120.698 30.46 120.998 29.92C121.318 29.36 121.558 28.73 121.718 28.03C121.898 27.33 121.988 26.61 121.988 25.87V21.55C121.788 21.49 121.488 21.42 121.088 21.34C120.688 21.26 120.328 21.22 120.008 21.22C119.248 21.22 118.618 21.35 118.118 21.61C117.638 21.87 117.248 22.23 116.948 22.69C116.648 23.15 116.438 23.7 116.318 24.34C116.198 24.98 116.138 25.68 116.138 26.44C116.138 27.14 116.158 27.81 116.198 28.45C116.238 29.09 116.338 29.66 116.498 30.16C116.678 30.64 116.928 31.03 117.248 31.33C117.568 31.61 117.998 31.75 118.538 31.75ZM137.229 13.69C137.369 13.69 137.689 13.69 138.189 13.69C138.689 13.67 139.249 13.66 139.869 13.66C140.489 13.66 141.109 13.66 141.729 13.66C142.349 13.64 142.859 13.63 143.259 13.63C145.699 13.63 147.499 14.18 148.659 15.28C149.819 16.36 150.399 17.85 150.399 19.75C150.399 20.67 150.239 21.52 149.919 22.3C149.599 23.06 149.119 23.72 148.479 24.28C147.859 24.84 147.079 25.28 146.139 25.6C145.219 25.9 144.139 26.05 142.899 26.05H140.799V34H137.229V13.69ZM140.799 23.38H143.109C144.369 23.38 145.269 23.05 145.809 22.39C146.349 21.73 146.619 20.89 146.619 19.87C146.619 19.41 146.559 18.96 146.439 18.52C146.319 18.08 146.109 17.69 145.809 17.35C145.529 16.99 145.139 16.71 144.639 16.51C144.159 16.29 143.549 16.18 142.809 16.18C142.369 16.18 141.979 16.18 141.639 16.18C141.319 16.18 141.039 16.19 140.799 16.21V23.38ZM163.846 26.77C163.846 27.97 163.916 28.98 164.056 29.8C164.216 30.6 164.386 31.25 164.566 31.75C164.786 32.35 165.026 32.82 165.286 33.16L162.616 34.24C162.356 33.98 162.116 33.67 161.896 33.31C161.716 32.99 161.546 32.61 161.386 32.17C161.226 31.71 161.126 31.17 161.086 30.55C160.746 31.75 160.196 32.66 159.436 33.28C158.696 33.88 157.686 34.18 156.406 34.18C155.466 34.18 154.646 34.01 153.946 33.67C153.266 33.31 152.696 32.81 152.236 32.17C151.776 31.51 151.436 30.72 151.216 29.8C150.996 28.88 150.886 27.86 150.886 26.74C150.886 25.6 151.056 24.55 151.396 23.59C151.756 22.61 152.246 21.77 152.866 21.07C153.506 20.37 154.266 19.82 155.146 19.42C156.026 19.02 156.996 18.82 158.056 18.82C158.656 18.82 159.276 18.87 159.916 18.97C160.576 19.05 161.186 19.14 161.746 19.24C162.306 19.34 162.776 19.44 163.156 19.54C163.556 19.62 163.786 19.67 163.846 19.69V26.77ZM156.976 31.78C157.476 31.78 157.936 31.61 158.356 31.27C158.776 30.93 159.136 30.49 159.436 29.95C159.756 29.39 159.996 28.76 160.156 28.06C160.336 27.34 160.426 26.61 160.426 25.87V21.55C160.226 21.49 159.926 21.42 159.526 21.34C159.126 21.26 158.766 21.22 158.446 21.22C157.686 21.22 157.056 21.35 156.556 21.61C156.076 21.87 155.686 22.23 155.386 22.69C155.086 23.15 154.876 23.7 154.756 24.34C154.636 24.98 154.576 25.68 154.576 26.44C154.576 27.14 154.596 27.81 154.636 28.45C154.676 29.09 154.776 29.66 154.936 30.16C155.116 30.66 155.366 31.06 155.686 31.36C156.006 31.64 156.436 31.78 156.976 31.78ZM166.22 19.06H168.92L169.52 15.55L172.34 14.92V19.06H176.03L175.61 21.49H172.34V30.37C172.34 30.89 172.48 31.23 172.76 31.39C173.04 31.53 173.35 31.6 173.69 31.6C173.97 31.6 174.25 31.58 174.53 31.54C174.81 31.5 175.06 31.45 175.28 31.39C175.54 31.33 175.79 31.26 176.03 31.18L176.6 33.43L176.33 33.52C176.15 33.6 175.88 33.69 175.52 33.79C175.18 33.87 174.77 33.94 174.29 34C173.83 34.08 173.32 34.12 172.76 34.12C172.2 34.12 171.68 34.06 171.2 33.94C170.74 33.82 170.34 33.63 170 33.37C169.66 33.09 169.39 32.74 169.19 32.32C169.01 31.9 168.92 31.38 168.92 30.76V21.49H166.22V19.06ZM177.06 19.06H179.76L180.36 15.55L183.18 14.92V19.06H186.87L186.45 21.49H183.18V30.37C183.18 30.89 183.32 31.23 183.6 31.39C183.88 31.53 184.19 31.6 184.53 31.6C184.81 31.6 185.09 31.58 185.37 31.54C185.65 31.5 185.9 31.45 186.12 31.39C186.38 31.33 186.63 31.26 186.87 31.18L187.44 33.43L187.17 33.52C186.99 33.6 186.72 33.69 186.36 33.79C186.02 33.87 185.61 33.94 185.13 34C184.67 34.08 184.16 34.12 183.6 34.12C183.04 34.12 182.52 34.06 182.04 33.94C181.58 33.82 181.18 33.63 180.84 33.37C180.5 33.09 180.23 32.74 180.03 32.32C179.85 31.9 179.76 31.38 179.76 30.76V21.49H177.06V19.06ZM188.21 26.89C188.21 25.55 188.39 24.37 188.75 23.35C189.13 22.33 189.64 21.48 190.28 20.8C190.94 20.1 191.71 19.58 192.59 19.24C193.47 18.88 194.42 18.7 195.44 18.7C196.34 18.7 197.1 18.81 197.72 19.03C198.36 19.25 198.88 19.55 199.28 19.93C199.68 20.31 199.97 20.76 200.15 21.28C200.35 21.8 200.45 22.36 200.45 22.96C200.45 23.68 200.25 24.37 199.85 25.03C199.45 25.67 198.87 26.24 198.11 26.74C197.37 27.22 196.47 27.61 195.41 27.91C194.35 28.19 193.16 28.34 191.84 28.36C191.9 28.82 191.99 29.26 192.11 29.68C192.25 30.08 192.44 30.44 192.68 30.76C192.94 31.06 193.27 31.3 193.67 31.48C194.07 31.66 194.57 31.75 195.17 31.75C195.61 31.75 196.08 31.7 196.58 31.6C197.08 31.5 197.54 31.38 197.96 31.24C198.46 31.08 198.95 30.9 199.43 30.7L200.33 32.83C199.81 33.09 199.25 33.32 198.65 33.52C198.13 33.7 197.53 33.86 196.85 34C196.17 34.14 195.45 34.21 194.69 34.21C193.53 34.21 192.54 34.04 191.72 33.7C190.9 33.34 190.23 32.84 189.71 32.2C189.19 31.56 188.81 30.79 188.57 29.89C188.33 28.99 188.21 27.99 188.21 26.89ZM195.17 21.04C194.51 21.04 193.96 21.2 193.52 21.52C193.1 21.82 192.76 22.22 192.5 22.72C192.24 23.2 192.05 23.75 191.93 24.37C191.83 24.97 191.77 25.58 191.75 26.2C192.71 26.16 193.52 26.04 194.18 25.84C194.86 25.62 195.41 25.36 195.83 25.06C196.25 24.74 196.55 24.4 196.73 24.04C196.93 23.68 197.03 23.32 197.03 22.96C197.03 22.38 196.86 21.92 196.52 21.58C196.18 21.22 195.73 21.04 195.17 21.04ZM209.98 22.18C209.62 22.18 209.26 22.27 208.9 22.45C208.54 22.63 208.22 22.88 207.94 23.2C207.66 23.5 207.43 23.87 207.25 24.31C207.07 24.75 206.98 25.24 206.98 25.78V34H203.56V26.44C203.56 25.24 203.48 24.24 203.32 23.44C203.16 22.62 202.99 21.96 202.81 21.46C202.59 20.88 202.35 20.41 202.09 20.05L204.79 18.97C204.97 19.19 205.16 19.46 205.36 19.78C205.52 20.06 205.68 20.39 205.84 20.77C206 21.15 206.13 21.6 206.23 22.12C206.63 20.96 207.21 20.13 207.97 19.63C208.73 19.11 209.59 18.85 210.55 18.85C211.01 18.85 211.44 18.91 211.84 19.03C212.24 19.13 212.43 19.18 212.41 19.18L211.45 22.51C211.47 22.51 211.35 22.46 211.09 22.36C210.85 22.24 210.48 22.18 209.98 22.18ZM223.664 34V24.31C223.664 23.47 223.514 22.8 223.214 22.3C222.914 21.78 222.404 21.52 221.684 21.52C221.224 21.52 220.774 21.64 220.334 21.88C219.914 22.1 219.534 22.43 219.194 22.87C218.854 23.31 218.574 23.85 218.354 24.49C218.154 25.11 218.054 25.81 218.054 26.59V34H214.634V26.44C214.634 25.24 214.554 24.24 214.394 23.44C214.234 22.62 214.064 21.96 213.884 21.46C213.664 20.88 213.424 20.41 213.164 20.05L215.864 18.97C216.064 19.19 216.264 19.46 216.464 19.78C216.624 20.06 216.784 20.41 216.944 20.83C217.104 21.23 217.234 21.69 217.334 22.21C217.854 21.01 218.604 20.15 219.584 19.63C220.564 19.09 221.594 18.82 222.674 18.82C224.214 18.82 225.324 19.29 226.004 20.23C226.704 21.15 227.054 22.4 227.054 23.98V34H223.664ZM250.025 34H247.505L244.115 26.29C244.015 26.07 243.885 25.77 243.725 25.39C243.585 25.01 243.425 24.59 243.245 24.13C243.065 23.67 242.875 23.19 242.675 22.69C242.475 22.17 242.285 21.65 242.105 21.13C242.105 21.65 242.095 22.17 242.075 22.69C242.075 23.19 242.065 23.67 242.045 24.13C242.025 24.57 242.005 24.97 241.985 25.33C241.985 25.67 241.985 25.94 241.985 26.14L241.685 34H238.325L239.525 13.63H242.315L247.445 26.35C247.625 26.81 247.825 27.31 248.045 27.85C248.285 28.39 248.505 28.92 248.705 29.44C248.905 28.92 249.115 28.4 249.335 27.88C249.555 27.34 249.765 26.83 249.965 26.35L255.125 13.63H257.855L259.055 34H255.725L255.395 26.23C255.375 25.73 255.345 25.02 255.305 24.1C255.285 23.16 255.265 22.21 255.245 21.25C255.065 21.75 254.875 22.25 254.675 22.75C254.495 23.25 254.325 23.72 254.165 24.16C254.005 24.6 253.855 25 253.715 25.36C253.575 25.72 253.465 26 253.385 26.2L250.025 34ZM274.676 26.77C274.676 27.97 274.746 28.98 274.886 29.8C275.046 30.6 275.216 31.25 275.396 31.75C275.616 32.35 275.856 32.82 276.116 33.16L273.446 34.24C273.186 33.98 272.946 33.67 272.726 33.31C272.546 32.99 272.376 32.61 272.216 32.17C272.056 31.71 271.956 31.17 271.916 30.55C271.576 31.75 271.026 32.66 270.266 33.28C269.526 33.88 268.516 34.18 267.236 34.18C266.296 34.18 265.476 34.01 264.776 33.67C264.096 33.31 263.526 32.81 263.066 32.17C262.606 31.51 262.266 30.72 262.046 29.8C261.826 28.88 261.716 27.86 261.716 26.74C261.716 25.6 261.886 24.55 262.226 23.59C262.586 22.61 263.076 21.77 263.696 21.07C264.336 20.37 265.096 19.82 265.976 19.42C266.856 19.02 267.826 18.82 268.886 18.82C269.486 18.82 270.106 18.87 270.746 18.97C271.406 19.05 272.016 19.14 272.576 19.24C273.136 19.34 273.606 19.44 273.986 19.54C274.386 19.62 274.616 19.67 274.676 19.69V26.77ZM267.806 31.78C268.306 31.78 268.766 31.61 269.186 31.27C269.606 30.93 269.966 30.49 270.266 29.95C270.586 29.39 270.826 28.76 270.986 28.06C271.166 27.34 271.256 26.61 271.256 25.87V21.55C271.056 21.49 270.756 21.42 270.356 21.34C269.956 21.26 269.596 21.22 269.276 21.22C268.516 21.22 267.886 21.35 267.386 21.61C266.906 21.87 266.516 22.23 266.216 22.69C265.916 23.15 265.706 23.7 265.586 24.34C265.466 24.98 265.406 25.68 265.406 26.44C265.406 27.14 265.426 27.81 265.466 28.45C265.506 29.09 265.606 29.66 265.766 30.16C265.946 30.66 266.196 31.06 266.516 31.36C266.836 31.64 267.266 31.78 267.806 31.78ZM282.12 12.25V20.8C282.28 20.6 282.48 20.39 282.72 20.17C282.98 19.93 283.3 19.71 283.68 19.51C284.06 19.31 284.5 19.14 285 19C285.5 18.86 286.08 18.79 286.74 18.79C287.36 18.79 287.94 18.88 288.48 19.06C289.02 19.24 289.48 19.5 289.86 19.84C290.26 20.18 290.57 20.6 290.79 21.1C291.03 21.58 291.15 22.13 291.15 22.75C291.15 23.65 290.96 24.39 290.58 24.97C290.22 25.55 289.81 26.01 289.35 26.35C288.83 26.75 288.23 27.07 287.55 27.31L291.75 34H287.88L283.56 26.53L283.53 26.23C283.69 26.19 283.99 26.1 284.43 25.96C284.89 25.82 285.36 25.62 285.84 25.36C286.32 25.1 286.74 24.78 287.1 24.4C287.48 24 287.67 23.53 287.67 22.99C287.67 22.41 287.5 21.97 287.16 21.67C286.82 21.37 286.37 21.22 285.81 21.22C285.05 21.22 284.43 21.37 283.95 21.67C283.47 21.97 283.09 22.31 282.81 22.69C282.55 23.07 282.37 23.43 282.27 23.77C282.17 24.11 282.12 24.31 282.12 24.37V34H278.7V12.85L282.12 12.25ZM292.624 26.89C292.624 25.55 292.804 24.37 293.164 23.35C293.544 22.33 294.054 21.48 294.694 20.8C295.354 20.1 296.124 19.58 297.004 19.24C297.884 18.88 298.834 18.7 299.854 18.7C300.754 18.7 301.514 18.81 302.134 19.03C302.774 19.25 303.294 19.55 303.694 19.93C304.094 20.31 304.384 20.76 304.564 21.28C304.764 21.8 304.864 22.36 304.864 22.96C304.864 23.68 304.664 24.37 304.264 25.03C303.864 25.67 303.284 26.24 302.524 26.74C301.784 27.22 300.884 27.61 299.824 27.91C298.764 28.19 297.574 28.34 296.254 28.36C296.314 28.82 296.404 29.26 296.524 29.68C296.664 30.08 296.854 30.44 297.094 30.76C297.354 31.06 297.684 31.3 298.084 31.48C298.484 31.66 298.984 31.75 299.584 31.75C300.024 31.75 300.494 31.7 300.994 31.6C301.494 31.5 301.954 31.38 302.374 31.24C302.874 31.08 303.364 30.9 303.844 30.7L304.744 32.83C304.224 33.09 303.664 33.32 303.064 33.52C302.544 33.7 301.944 33.86 301.264 34C300.584 34.14 299.864 34.21 299.104 34.21C297.944 34.21 296.954 34.04 296.134 33.7C295.314 33.34 294.644 32.84 294.124 32.2C293.604 31.56 293.224 30.79 292.984 29.89C292.744 28.99 292.624 27.99 292.624 26.89ZM299.584 21.04C298.924 21.04 298.374 21.2 297.934 21.52C297.514 21.82 297.174 22.22 296.914 22.72C296.654 23.2 296.464 23.75 296.344 24.37C296.244 24.97 296.184 25.58 296.164 26.2C297.124 26.16 297.934 26.04 298.594 25.84C299.274 25.62 299.824 25.36 300.244 25.06C300.664 24.74 300.964 24.4 301.144 24.04C301.344 23.68 301.444 23.32 301.444 22.96C301.444 22.38 301.274 21.92 300.934 21.58C300.594 21.22 300.144 21.04 299.584 21.04ZM314.394 22.18C314.034 22.18 313.674 22.27 313.314 22.45C312.954 22.63 312.634 22.88 312.354 23.2C312.074 23.5 311.844 23.87 311.664 24.31C311.484 24.75 311.394 25.24 311.394 25.78V34H307.974V26.44C307.974 25.24 307.894 24.24 307.734 23.44C307.574 22.62 307.404 21.96 307.224 21.46C307.004 20.88 306.764 20.41 306.504 20.05L309.204 18.97C309.384 19.19 309.574 19.46 309.774 19.78C309.934 20.06 310.094 20.39 310.254 20.77C310.414 21.15 310.544 21.6 310.644 22.12C311.044 20.96 311.624 20.13 312.384 19.63C313.144 19.11 314.004 18.85 314.964 18.85C315.424 18.85 315.854 18.91 316.254 19.03C316.654 19.13 316.844 19.18 316.824 19.18L315.864 22.51C315.884 22.51 315.764 22.46 315.504 22.36C315.264 22.24 314.894 22.18 314.394 22.18Z" fill="black"/>
<path d="M27.2144 10.5C31.2641 19.4356 49.2144 17.5 50.2144 24.5C51.2144 31.5 45.2144 30.5 39.2144 32.5" stroke="black" stroke-width="1.5"/>
<path d="M1.71436 15C1.71436 15 1.71434 29.3 12.7143 31.6" stroke="black" stroke-width="1.5"/>
<circle cx="26.7144" cy="10" r="7.5" stroke="#F09C29" stroke-width="5"/>
<circle cx="13.7144" cy="32" r="7.5" stroke="#C0272D" stroke-width="5"/>
<circle cx="38.7144" cy="32" r="7.5" stroke="#912A90" stroke-width="5"/>
<path d="M6.71436 4.5C6.71436 4.5 20.2144 -2.5 27.2144 10.5" stroke="black" stroke-width="1.5"/>
<path d="M12.2144 31.5C12.2144 31.5 29.7144 35.5 39.9619 32.263" stroke="black" stroke-width="1.5"/>
</svg>
