<svg xmlns="http://www.w3.org/2000/svg" width="650" height="120" viewBox="0 0 150 33.209"><g transform="translate(-35.04 -46)"><g transform="translate(35.04 46)"><g transform="translate(40.788 7.982)"><path d="M192.765,130.318v15.049h-2.441V130.318Z" transform="translate(-177.428 -130.318)" fill="#002840"/><path d="M269.976,144.379v6.22h-2.441v-5.819a2.452,2.452,0,1,0-4.9-.061V150.6h-2.441v-5.819a2.354,2.354,0,0,0-2.462-2.508,2.446,2.446,0,0,0-2.441,2.528v5.8h-2.441V140.246h2.441v1.2a4.072,4.072,0,0,1,3.112-1.4,4.143,4.143,0,0,1,3.5,1.766,4.524,4.524,0,0,1,3.662-1.766A4.217,4.217,0,0,1,269.976,144.379Z" transform="translate(-210.661 -135.55)" fill="#002840"/><path d="M299.728,140.045v2.548c-2.36-.161-3.54,1.043-3.54,2.629V150.6h-2.441V140.246h2.441v1.465A4.516,4.516,0,0,1,299.728,140.045Z" transform="translate(-232.401 -135.55)" fill="#002840"/><path d="M318.063,146.285H309.8a3.06,3.06,0,0,0,3.133,2.368,3.184,3.184,0,0,0,2.929-1.666l2.035.843a5.49,5.49,0,1,1-5.045-7.786A5.2,5.2,0,0,1,318.063,146.285Zm-8.238-1.826h6.041a3.032,3.032,0,0,0-2.95-2.267A3.1,3.1,0,0,0,309.825,144.46Z" transform="translate(-239.671 -135.55)" fill="#002840"/><path d="M343.979,140.246V150.6h-2.441v-1.385a4.473,4.473,0,0,1-3.52,1.585,5.385,5.385,0,0,1,0-10.755,4.475,4.475,0,0,1,3.52,1.585v-1.384Zm-2.441,5.177a3.088,3.088,0,0,0-3.092-3.191,3.194,3.194,0,0,0,0,6.381A3.089,3.089,0,0,0,341.537,145.423Z" transform="translate(-253.219 -135.55)" fill="#002840"/><path d="M360.179,145.423a5.293,5.293,0,0,1,5.411-5.378,5.378,5.378,0,0,1,5.106,3.311l-2.258.762a3.115,3.115,0,0,0-2.787-1.846,2.993,2.993,0,0,0-3.031,3.15,3.11,3.11,0,0,0,3.052,3.15,3.142,3.142,0,0,0,2.848-1.966l2.2.842a5.372,5.372,0,0,1-5.106,3.351A5.273,5.273,0,0,1,360.179,145.423Z" transform="translate(-267.712 -135.55)" fill="#002840"/><path d="M395.895,139.368v6h-2.441v-5.618a2.571,2.571,0,0,0-2.686-2.709,2.643,2.643,0,0,0-2.705,2.749v5.578h-2.442V130.318h2.442v6.04a4.379,4.379,0,0,1,3.357-1.545A4.333,4.333,0,0,1,395.895,139.368Z" transform="translate(-281.235 -130.318)" fill="#002840"/><path d="M165.237,135.749h0v-5.431H162.8v15.049h2.441v-.737h0a5.546,5.546,0,0,0,2.988.837,5.714,5.714,0,0,0,2.057-.375,5.359,5.359,0,0,0-.014-9.809,5.717,5.717,0,0,0-2.043-.37,5.545,5.545,0,0,0-2.988.837h0m2.7,7.592a3.011,3.011,0,0,1-2.7-1.593,3.318,3.318,0,0,1,0-3.115,3.012,3.012,0,0,1,2.7-1.592,3.151,3.151,0,0,1,0,6.3Z" transform="translate(-162.796 -130.318)" fill="#002840"/><g transform="translate(17.147 4.495)"><path d="M199.4,145.422a5.535,5.535,0,1,1,5.534,5.378A5.336,5.336,0,0,1,199.4,145.422Zm5.534,3.152a3.151,3.151,0,1,0-3.093-3.152A3.079,3.079,0,0,0,204.933,148.573Z" transform="translate(-199.399 -140.045)" fill="#002840"/></g><g transform="translate(29.432 4.495)"><path d="M225.623,145.422a5.536,5.536,0,1,1,5.534,5.378A5.336,5.336,0,0,1,225.623,145.422Zm5.534,3.152a3.151,3.151,0,1,0-3.092-3.152A3.079,3.079,0,0,0,231.157,148.573Z" transform="translate(-225.623 -140.045)" fill="#002840"/></g></g><ellipse cx="16.834" cy="16.604" rx="16.834" ry="16.604" fill="#ffd500"/><g transform="translate(12.506 7.982)"><path d="M110.165,140.895l-.825,2.069a3.031,3.031,0,0,1,1.42,2.606,2.989,2.989,0,1,1-3.121-3.037l.775-2.121a5.144,5.144,0,0,0-5.983,5.022l-.007,0v5.337h2.359v-.837a5.545,5.545,0,0,0,2.988.837,5.166,5.166,0,0,0,5.346-5.2A5.082,5.082,0,0,0,110.165,140.895Z" transform="translate(-102.424 -135.721)" fill="#002840"/><path d="M102.424,135.239a7.239,7.239,0,0,1,2.356-1.578v-3.342h-2.356Z" transform="translate(-102.424 -130.318)" fill="#002840"/></g></g></g></svg>